# xmcd
#
# Track frame offsets:
#	150
#	1565
#	21300
#	22854
#	38734
#	56158
#	71046
#	90054
#	102581
#	115949
#	130278
#	142858
#	154404
#	168857
#
# Disc length: 2270 seconds
#
# Revision: 1
# Processed by: cddbd v1.5.2PL0 Copyright (c) Steve Scherf et al.
# Submitted via: EasyCDDAExtractor 6.5.0.1
#
DISCID=a808dc0e
DTITLE=Stella Parton - American Coal
DYEAR=2010
DGENRE=Country
TTITLE0=Narration
TTITLE1=Coal Medley
TTITLE2=Narration
TTITLE3=Coal Tattoo
TTITLE4=Blackie Kentucky
TTITLE5=Preacher and a Miner
TTITLE6=These are my mountains
TTITLE7=Schooldays end
TTITLE8=The L&N don't stop here anymore
TTITLE9=Coal Miner's Daughter
TTITLE10=West Virginia Underground
TTITLE11=Im A Coal Mining Man
TTITLE12=I Love My Country
TTITLE13=Narration
EXTD=
EXTT0=
EXTT1=
EXTT2=
EXTT3=
EXTT4=
EXTT5=
EXTT6=
EXTT7=
EXTT8=
EXTT9=
EXTT10=
EXTT11=
EXTT12=
EXTT13=
PLAYORDER=
